<svg width="46" height="46" viewBox="0 0 46 46" fill="none" xmlns="http://www.w3.org/2000/svg">
<path d="M13.3803 8.625C14.7056 8.625 15.9304 8.72563 17.0545 9.0275C18.1758 9.22875 19.0986 9.6485 19.918 10.1516C20.7403 10.6576 21.3469 11.3764 21.7609 12.2992C22.1634 13.2192 22.3819 14.3434 22.3819 15.5681C22.3819 16.9941 22.0771 18.2189 21.3584 19.1389C20.7403 20.0589 19.7311 20.8811 18.492 21.4877C20.2343 21.9937 21.5596 22.9137 22.3675 24.1385C23.1754 25.3632 23.6929 26.8899 23.6929 28.6321C23.6929 30.0581 23.391 31.2829 22.8735 32.3064C22.3573 33.3366 21.5826 34.2152 20.6253 34.8565C19.7053 35.4746 18.5811 35.9777 17.3564 36.2825C16.1566 36.5993 14.9228 36.7692 13.6821 36.7885L0 36.8086V8.625H13.3803ZM12.5609 20.0618C13.6821 20.0618 14.6021 19.7599 15.3123 19.2424C16.0195 18.7249 16.3329 17.8135 16.3329 16.6923C16.3329 16.0713 16.2323 15.4675 16.031 15.0621C15.8132 14.6513 15.4971 14.3007 15.111 14.0415C14.6939 13.8141 14.2481 13.6439 13.7856 13.5355C13.2796 13.4349 12.7621 13.4349 12.1555 13.4349H6.23875V20.0761C6.23875 20.0617 12.5609 20.0618 12.5609 20.0618ZM12.8628 32.1166C13.4809 32.1166 14.0875 32.016 14.605 31.9154C15.111 31.8147 15.6285 31.6106 16.031 31.2944C16.4335 30.9781 16.7498 30.6762 17.0545 30.1731C17.2558 29.6671 17.457 29.049 17.457 28.3303C17.457 26.9043 17.0545 25.8807 16.2323 25.162C15.4129 24.5439 14.2888 24.242 12.9634 24.242H6.23875V32.1023H12.8656L12.8628 32.1166ZM32.5795 32.016C33.4018 32.8354 34.6236 33.2408 36.2538 33.2408C37.375 33.2408 38.3985 32.936 39.2208 32.4185C40.0401 31.8004 40.5433 31.1937 40.7445 30.5785H45.747C44.9248 33.0251 43.7 34.7674 42.0728 35.8915C40.4455 36.9121 38.4991 37.5188 36.1503 37.5188C34.6483 37.5254 33.1586 37.2474 31.7601 36.6994C30.5015 36.2315 29.3784 35.4591 28.4913 34.4511C27.5449 33.5112 26.8423 32.3546 26.4443 31.0816C25.9411 29.7562 25.7255 28.3302 25.7255 26.6886C25.7255 25.162 25.9268 23.7216 26.4443 22.3962C26.9618 21.0737 27.669 19.9468 28.5919 18.9261C29.5119 18.0061 30.636 17.1839 31.8608 16.6779C33.2264 16.1341 34.6832 15.856 36.1531 15.8585C37.8954 15.8585 39.422 16.1604 40.7474 16.8791C42.0699 17.5979 43.0963 18.4086 43.9156 19.6334C44.735 20.7546 45.3416 22.08 45.7585 23.5089C45.9598 24.9349 46.0604 26.3724 45.9598 28.0025H31.1535C31.1535 29.67 31.7573 31.1937 32.5795 32.016ZM39.0195 21.2865C38.3008 20.5677 37.1738 20.1624 35.8484 20.1624C34.9284 20.1624 34.2211 20.3636 33.603 20.6684C32.9849 20.9703 32.5795 21.3871 32.177 21.7896C31.8012 22.1842 31.5511 22.6815 31.4583 23.2185C31.3548 23.7216 31.257 24.1385 31.257 24.541H40.4455C40.2443 23.0288 39.7296 22.0052 39.0195 21.2865ZM30.0294 10.5685H41.4661V13.3199H30.0294V10.5685Z" fill="white"/>
</svg>
