<svg width="64" height="64" viewBox="0 0 64 64" fill="none" xmlns="http://www.w3.org/2000/svg">
<g clip-path="url(#clip0_823_370)">
<path d="M62.18 26.232C62.5531 28.3798 62.7392 30.556 62.736 32.736C62.736 42.472 59.256 50.704 53.2 56.276H53.208C47.912 61.168 40.632 64 32 64C23.5131 64 15.3737 60.6286 9.37258 54.6274C3.37142 48.6263 0 40.4869 0 32C0 23.5131 3.37142 15.3737 9.37258 9.37258C15.3737 3.37142 23.5131 0 32 0C39.9438 -0.0930334 47.6154 2.89133 53.408 8.328L44.272 17.464C40.9695 14.3159 36.562 12.592 32 12.664C23.652 12.664 16.56 18.296 14.032 25.88C12.6916 29.854 12.6916 34.158 14.032 38.132H14.044C16.584 45.704 23.664 51.336 32.012 51.336C36.324 51.336 40.028 50.232 42.9 48.28H42.888C44.5556 47.1752 45.9821 45.744 47.0814 44.0727C48.1807 42.4015 48.93 40.5248 49.284 38.556H32V26.236L62.18 26.232Z" fill="white"/>
</g>
<defs>
<clipPath id="clip0_823_370">
<rect width="64" height="64" fill="white"/>
</clipPath>
</defs>
</svg>
